<svg width='50px' height='50px' xmlns:x="http://ns.adobe.com/Extensibility/1.0/" xmlns:i="http://ns.adobe.com/AdobeIllustrator/10.0/" xmlns:graph="http://ns.adobe.com/Graphs/1.0/" xmlns="http://www.w3.org/2000/svg" xmlns:xlink="http://www.w3.org/1999/xlink" version="1.1" x="0px" y="0px" viewBox="0 0 64 80" enable-background="new 0 0 64 64" xml:space="preserve"><metadata><sfw xmlns="http://ns.adobe.com/SaveForWeb/1.0/"><slices/><sliceSourceBounds height="16384" width="16389" x="-8165" y="-8160" bottomLeftOrigin="true"/></sfw></metadata><g><g><path fill='#A9A9A9' d="M12,15h40c0.553,0,1-0.448,1-1s-0.447-1-1-1H12c-0.552,0-1,0.448-1,1S11.448,15,12,15z"/><path fill='#A9A9A9' d="M16,11h32c0.553,0,1-0.448,1-1s-0.447-1-1-1H16c-0.552,0-1,0.448-1,1S15.448,11,16,11z"/><path fill='#A9A9A9' d="M58,17H6c-0.552,0-1,0.448-1,1v36c0,0.553,0.448,1,1,1h52c0.553,0,1-0.447,1-1V18C59,17.448,58.553,17,58,17z M40,37h-7v7    c0,0.553-0.448,1-1,1s-1-0.447-1-1v-7h-7c-0.552,0-1-0.447-1-1s0.448-1,1-1h7v-7c0-0.552,0.448-1,1-1s1,0.448,1,1v7h7    c0.553,0,1,0.447,1,1S40.553,37,40,37z"/></g></g><text x="0" y="79" fill="#A9A9A9" font-size="5px" font-weight="bold" font-family="'Helvetica Neue', Helvetica, Arial-Unicode, Arial, Sans-serif"></text><text x="0" y="84" fill="#A9A9A9" font-size="5px" font-weight="bold" font-family="'Helvetica Neue', Helvetica, Arial-Unicode, Arial, Sans-serif"></text></svg>