<svg height='30px' width='30px' xmlns="http://www.w3.org/2000/svg" xmlns:xlink="http://www.w3.org/1999/xlink" version="1.1" x="0px" y="0px" viewBox="0 0 100 125" enable-background="new 0 0 100 100" xml:space="preserve"><g><path d="M88,7H25c-2.762,0-5,2.239-5,5v43h-9c-2.762,0-5,2.239-5,5v30c0,2.761,2.238,5,5,5h29c2.762,0,5-2.239,5-5V80h43   c2.762,0,5-2.239,5-5V12C93,9.239,90.762,7,88,7z M35,85H16V65h4v10c0,2.761,2.238,5,5,5h10V85z M35,70h-5v-5h5V70z M83,70H45V60   c0-2.761-2.238-5-5-5H30V17h53V70z"/><path d="M47.171,53.267c0.976,0.976,2.256,1.464,3.535,1.464s2.56-0.488,3.535-1.464L69.15,38.358l-0.603,10.891   c-0.152,2.757,1.959,5.116,4.716,5.269c0.095,0.005,0.188,0.008,0.281,0.008c2.635,0,4.84-2.061,4.987-4.724l1.325-23.953   c0.079-1.42-0.451-2.806-1.457-3.812c-1.004-1.005-2.379-1.533-3.812-1.457l-23.953,1.326c-2.757,0.152-4.868,2.511-4.716,5.269   c0.153,2.758,2.55,4.872,5.269,4.716l10.891-0.603L47.171,46.195C45.218,48.148,45.218,51.314,47.171,53.267z"/></g><text x="0" y="115" fill="#000000" font-size="5px" font-weight="bold" font-family="'Helvetica Neue', Helvetica, Arial-Unicode, Arial, Sans-serif"></text><text x="0" y="120" fill="#000000" font-size="5px" font-weight="bold" font-family="'Helvetica Neue', Helvetica, Arial-Unicode, Arial, Sans-serif"></text></svg>