<svg height='75px' width='75px' xmlns="http://www.w3.org/2000/svg" xmlns:xlink="http://www.w3.org/1999/xlink" version="1.1" x="0px" y="0px" viewBox="0 0 90 112.5" enable-background="new 0 0 90 90" xml:space="preserve"><g><path d="M76.177,51.602c-1.496-1.3-3.926-2.402-6.967-3.298c-25.155-5.97-45.903,0.222-48.587,1.085   c-0.001,0.007-0.001,0.015-0.001,0.021c-2.857,1.06-5.255,2.35-6.96,3.894L12.04,72.797c15.069,3.967,49.962,3.967,67.229-1.083   L76.177,51.602z M34.162,51.101c-9.865,0-15.483,4.645-15.483,4.645l-0.976,15.082l-1.662-0.287l1.089-15.655   c6.078-5.79,17.031-5.562,17.031-5.562V51.101z"/><ellipse cx="45.654" cy="30.91" rx="4.019" ry="4.227"/><path d="M69.098,46.794c-0.396-5.54-1.453-17.433-3.502-22.294c-3.347-7.945-37.544-9.514-42.57,1.105   c-0.953,2.011-1.951,16.535-2.321,22.461C41.691,40.441,67.249,46.35,69.098,46.794z M33.074,24.914   c-4.522,0-6.603,4.283-6.603,4.283l-1.726,17.014l-1.725-0.238l1.785-17.371c3.569-6.128,8.33-5.414,8.33-5.414L33.074,24.914z    M36.161,30.91c0-4.713,4.253-8.536,9.491-8.536c5.24,0,9.495,3.823,9.495,8.536c0,4.713-4.255,8.534-9.495,8.534   C40.415,39.444,36.161,35.623,36.161,30.91z"/></g><text x="0" y="105" fill="#000000" font-size="5px" font-weight="bold" font-family="'Helvetica Neue', Helvetica, Arial-Unicode, Arial, Sans-serif"></text><text x="0" y="110" fill="#000000" font-size="12px" font-weight="bold" font-family="'Helvetica Neue', Helvetica, Arial-Unicode, Arial, Sans-serif"></text></svg>