<svg width='50px' height='50px' xmlns="http://www.w3.org/2000/svg" xmlns:xlink="http://www.w3.org/1999/xlink" version="1.1" x="0px" y="0px" viewBox="0 0 100 125" enable-background="new 0 0 100 100" xml:space="preserve"><path d="M69.338,38.013V24.338C69.338,13.675,60.662,5,49.999,5s-19.338,8.675-19.338,19.338v13.675  c-8.056,1.405-14.156,8.021-14.156,15.976v24.756c0,8.979,7.767,16.256,17.35,16.256h32.29c9.582,0,17.351-7.277,17.351-16.256  V53.988C83.495,46.033,77.393,39.417,69.338,38.013z M49.996,6.09c6.619,0,12.414,3.521,15.613,8.794  c-3.199-4.736-8.994-7.896-15.613-7.896c-6.616,0-12.408,3.16-15.608,7.896C37.588,9.61,43.38,6.09,49.996,6.09z M60.662,24.338  v13.396H39.336V24.338c0-5.879,4.783-10.663,10.663-10.663S60.662,18.459,60.662,24.338z M54.344,67.245v9.023  c0,2.402-1.945,4.345-4.345,4.345c-2.399,0-4.344-1.942-4.344-4.345v-9.023c-1.796-1.335-2.975-3.452-2.975-5.861  c0-4.042,3.277-7.319,7.319-7.319s7.319,3.277,7.319,7.319C57.318,63.793,56.14,65.91,54.344,67.245z M82.251,55.349  c0-8.644-7.48-15.652-16.706-15.652h-31.09c-9.227,0-16.706,7.009-16.706,15.652v-1.044c0-8.645,7.479-15.653,16.706-15.653h31.09  c9.226,0,16.706,7.009,16.706,15.653V55.349z"/><text x="0" y="115" fill="#000000" font-size="5px" font-weight="bold" font-family="'Helvetica Neue', Helvetica, Arial-Unicode, Arial, Sans-serif"></text><text x="0" y="120" fill="#000000" font-size="5px" font-weight="bold" font-family="'Helvetica Neue', Helvetica, Arial-Unicode, Arial, Sans-serif"></text></svg>