<svg width='75px' height='75px' xmlns="http://www.w3.org/2000/svg" xmlns:xlink="http://www.w3.org/1999/xlink" version="1.1" x="0px" y="0px" viewBox="0 0 120 150" style="enable-background:new 0 0 120 120;" xml:space="preserve"><g><path d="M86.1,45.5l-10-10c-1-1-2.6-1-3.5,0c-1,1-1,2.6,0,3.5l8.2,8.2l-8.2,8.2c-1,1-1,2.6,0,3.5c0.5,0.5,1.1,0.7,1.8,0.7   s1.3-0.2,1.8-0.7l10-10C87.1,48,87.1,46.5,86.1,45.5z"/><path d="M97.1,45.5l-10-10c-1-1-2.6-1-3.5,0c-1,1-1,2.6,0,3.5l8.2,8.2l-8.2,8.2c-1,1-1,2.6,0,3.5c0.5,0.5,1.1,0.7,1.8,0.7   s1.3-0.2,1.8-0.7l10-10C98.1,48,98.1,46.5,97.1,45.5z"/><path d="M55.4,62.7c-3,1.8-6.4,2.9-10.1,2.9s-7.2-1.1-10.1-2.9c-7.5,1.9-13,8.6-13,16.6v9.3h46.2v-9.3   C68.4,71.3,62.9,64.6,55.4,62.7z"/><path d="M45.3,60.6c8.1,0,14.6-6.6,14.6-14.6s-6.6-14.6-14.6-14.6c-8.1,0-14.6,6.6-14.6,14.6S37.2,60.6,45.3,60.6z"/></g><text x="0" y="135" fill="#000000" font-size="5px" font-weight="bold" font-family="'Helvetica Neue', Helvetica, Arial-Unicode, Arial, Sans-serif"></text><text x="0" y="140" fill="#000000" font-size="25px" font-weight="bold" font-family="'Helvetica Neue', Helvetica, Arial-Unicode, Arial, Sans-serif">Log Out</text></svg>