<svg height='30px' width='30px' xmlns="http://www.w3.org/2000/svg" xmlns:xlink="http://www.w3.org/1999/xlink" viewBox="0 0 17 21.25" version="1.1" x="0px" y="0px"><title>045-completed task</title><desc>Created with Sketch.</desc><g stroke="none" stroke-width="1" fill="none" fill-rule="evenodd"><g fill="#000000"><path d="M14.6895,5.5375 L8.0005,12.2265 L4.1035,8.3305 C3.7125,7.9395 3.7125,7.3075 4.1035,6.9165 C4.4945,6.5255 5.1265,6.5255 5.5175,6.9165 L8.0005,9.3985 L13.2755,4.1235 C13.6665,3.7325 14.2985,3.7325 14.6895,4.1235 C15.0805,4.5145 15.0805,5.1465 14.6895,5.5375 M13.4575,0.2265 L4.5075,0.2265 C2.5605,0.2265 0.9825,1.8045 0.9825,3.7515 L0.9825,12.7025 C0.9825,14.6485 2.5605,16.2265 4.5075,16.2265 L13.4575,16.2265 C15.4045,16.2265 16.9825,14.6485 16.9825,12.7025 L16.9825,3.7515 C16.9825,1.8045 15.4045,0.2265 13.4575,0.2265"/></g></g><text x="0" y="32" fill="#000000" font-size="5px" font-weight="bold" font-family="'Helvetica Neue', Helvetica, Arial-Unicode, Arial, Sans-serif"></text><text x="0" y="37" fill="#000000" font-size="5px" font-weight="bold" font-family="'Helvetica Neue', Helvetica, Arial-Unicode, Arial, Sans-serif"></text></svg>