<svg width='75px' height='75px' xmlns="http://www.w3.org/2000/svg" data-name="Layer 1" viewBox="0 0 100 125" x="0px" y="0px"><title>Artboard 193</title><path d="M94.44,84.53A14.25,14.25,0,0,0,94.62,82l0-1.89-.08-3.78-.22-7.56-.06-1.89,0-.94c0-.42-.05-.86-.11-1.29a11.17,11.17,0,0,0-1.86-4.77,10.87,10.87,0,0,0-8.53-4.71c-3.59.11-6.89.3-10.2.51L76,53.24l5.18-5.05,1.29-1.27A15.24,15.24,0,0,0,84,45.06,13.5,13.5,0,0,0,85,31a14.75,14.75,0,0,0-2.88-3.76l-2.6-2.52-5.22-5-2.67-2.52a12.73,12.73,0,0,0-4-2.56,12.86,12.86,0,0,0-13.25,2.19c-1.24,1.15-1.8,1.9-2.68,2.84l-7.76,8.74c-.11-3.31-.2-6.61-.32-9.91h0a1.74,1.74,0,1,0-3.45,0v.31q-1,26.43-1.47,52.89l-.12,6.61c-.1,2.16.08,4.76-.3,5.57a4.58,4.58,0,0,1-2.45,2.69,4.4,4.4,0,0,1-1.78.4l-3.2,0-13.23-.1a4.36,4.36,0,0,1-4.81-4.47q0-26.46-.48-52.91L12,16.3a5.14,5.14,0,0,1,1.66-3.77,5,5,0,0,1,1.84-1.11A7.08,7.08,0,0,1,18,11.1l13.22-.4c1,0,2.38-.09,3.12-.08a6,6,0,0,1,2.37.59A6.21,6.21,0,0,1,39.91,15h0a2.24,2.24,0,0,0,2,1.52h0c.91,0,1.74-1,1.46-2.38l-.08-.36a9.89,9.89,0,0,0-4.93-6.23,10,10,0,0,0-4-1.14L31,6.24,17.73,5.85A10.83,10.83,0,0,0,6.11,16.49L5.84,29.72c-.31,17.66-.48,35.2-.46,53A11.66,11.66,0,0,0,13.5,93.6a12,12,0,0,0,2.36.5l1.2.06h.83l13.23-.09,1.66,0c.57,0,1,0,1.89-.05a11.63,11.63,0,0,0,3.07-.72q20.65.9,41.31.92h3.78a11.82,11.82,0,0,0,11.61-9.65ZM44.5,32.89l.12-.11,10.84-9.62c2-1.83,3.07-2.82,4.83-3.2a7,7,0,0,1,4.87.57A6.73,6.73,0,0,1,67.09,22l2.49,2.63,5,5.23,2.52,2.59a7.12,7.12,0,0,1,1.41,1.95,6.35,6.35,0,0,1-.59,6.47,7.38,7.38,0,0,1-.81.94L75.85,43.1l-5,5.18-10,10.49c-5.31,5.68-10.5,11.49-15.66,17.32l-.08-4.75q-.36-19.19-1-38.37C44.22,32.94,44.39,33,44.5,32.89Zm43.37,36-.22,7.56-.09,3.78,0,1.89a5.79,5.79,0,0,1-.14,1.12,4.64,4.64,0,0,1-4.73,3.52H78.88q-17.35,0-34.72.66a10.32,10.32,0,0,0,.74-2,13.72,13.72,0,0,0,.36-3.88q10.26-9,20.24-18.32l4-3.75,14,.83a5.49,5.49,0,0,1,3.93,2.82A5.2,5.2,0,0,1,88,65.41Z"/><path d="M25.48,70a4.1,4.1,0,1,0,4.1,4.1A4.09,4.09,0,0,0,25.48,70Z"/><text x="0" y="115" fill="#000000" font-size="5px" font-weight="bold" font-family="'Helvetica Neue', Helvetica, Arial-Unicode, Arial, Sans-serif"></text><text x="0" y="120" fill="#000000" font-size="20px" font-weight="bold" font-family="'Helvetica Neue', Helvetica, Arial-Unicode, Arial, Sans-serif">All Palettes</text></svg>