<svg xmlns="http://www.w3.org/2000/svg" xmlns:xlink="http://www.w3.org/1999/xlink" xml:space="preserve" version="1.1" style="shape-rendering:geometricPrecision;text-rendering:geometricPrecision;image-rendering:optimizeQuality;" viewBox="0 0 50000 62500" x="0px" y="0px" fill-rule="evenodd" clip-rule="evenodd"><defs><style type="text/css">
   
    .fil0 {fill:black;fill-rule:nonzero}
   
  </style></defs><g><path height='120px' width='120px' class="fil0" d="M13195.08 10660.75c-134.34,102.77 -279.72,216.31 -264.17,395.35 30.01,564.45 1130.09,926.05 1544.85,1044.34 2040.33,581.89 5615.72,756.76 8549.82,521.79 638.33,-794.41 1588.18,-984.26 2441.96,-518.67 290.42,158.38 179.61,157.14 523.09,67.63 576.46,-150.23 1037.35,-329.69 1335.92,-537.99 399.62,-278.79 522.05,-736.05 5.88,-940.76 -253.41,247.87 -624.77,430.23 -1010.89,567.58 -2506.16,891.48 -11365.41,1256 -13126.46,-599.27zm14632.46 6080.48c-187.3,60.88 -279.85,-223.89 -92.58,-284.76 178.9,-58.2 360.8,-154.33 446.31,-330.7 85.55,-177.27 355.09,-47.19 269.54,130.08 -123.19,254.09 -362.61,400.57 -623.27,485.38zm-4090.74 -2289.35c-97.75,-170.12 161.24,-318.93 258.98,-148.82 558,968.04 1717.79,1360.91 2554.89,487.77 136.4,-141.8 352.04,65.59 215.62,207.42 -978.39,1020.51 -2371.44,595.24 -3029.49,-546.37zm10639.42 19029.42c-112.91,66.71 -214.45,-105.18 -101.56,-171.88 325,-192.1 614.4,-457.23 838.43,-760.82 77.58,-105.33 237.74,12.63 160.16,117.96 -241.06,326.69 -547.25,608.01 -897.03,814.74zm-938.82 -90.82c-123.85,43.67 -190.21,-144.63 -66.4,-188.28 683.2,-242.15 1289.71,-811.23 1577.67,-1476.07 51.87,-120.22 234.71,-41.36 182.82,78.9 -309.55,714.7 -959.6,1325.14 -1694.09,1585.45zm4510.59 -5736.4c-65.5,321.12 -553.78,221.55 -488.28,-99.6 87.7,-426.05 72.29,-967.34 -21.08,-1499.76 -133.45,-761.03 -333.87,-1144.06 -698.05,-1797.08 -1244.37,-2230.86 -2167.03,-4631.23 -2874.39,-7082.63 -974.87,-3378.5 -1883.4,-5061.21 -3607.35,-8075.85 -521.51,-912.45 -1146.22,-1928.54 -1860.79,-2701.62 -1033.39,-1118.01 -4846.76,-3647.41 -6217.07,-4089.67 -643.98,-207.85 -1323.96,-329.1 -1994.66,-351.25 -676.08,-22.31 -1106.63,527.74 -978.95,1174.53 32.32,163.75 103.99,314.84 214.73,429.47 783.87,-50.98 1669.11,-41.31 2439.59,87.37 518.35,86.55 844.39,256.29 861.94,489.7l2.57 1212.7 21.78 21.46c205.02,125.64 415.66,143.48 648.85,111.95 310.64,-41.73 424.77,451.22 27.59,499.12 508.27,428.97 1154.29,1097.1 1705.24,1382.42 169.69,87.88 330.14,137.33 495.01,135.58 327.58,-2.55 331.42,495.49 3.9,498.04 -83.36,0.88 -164.56,-5.97 -244.46,-19.92 195.79,286.01 396.84,617.81 606.78,1012.37 535.36,153.4 1668.6,535.79 1584.54,1260.34 798.97,348.94 743.26,1334.33 743.26,2082.06l0 1853.05c753.91,511.73 1450.34,1311.4 2091.99,2153.19 210.05,275.6 360.67,525.35 687.47,696.51 176.55,92.46 366.61,141.65 558.09,166.68 324.99,42.4 260.53,536.53 -64.46,494.14 -262.52,-34.29 -251.25,-81.64 -76.16,162.25 407,566.9 785.49,1077.54 1129.46,1433.95 227.36,236.37 -132.03,582.06 -359.38,345.7 -431.34,-446.93 -896.79,-1098.64 -1401.5,-1805.33 -270.36,-378.54 -541,-757.26 -821.89,-1128.14 -659.3,-870.62 -1372.47,-1694.88 -2127.41,-2173.41 -877.45,-556.18 -1643.34,-1219.94 -2469.22,-1838.67 -762.41,-571.16 -1818.11,-396.99 -2222.52,519.7 -208.51,472.6 -161.65,1132.09 95.37,1820.18 304.1,814.13 900.83,1655.23 1721.76,2280.38 968.05,737.23 1355.7,1083.31 2084.25,2094.61 276.66,384.09 589.09,870.7 950.77,1177.16 250.16,211.65 -72.06,592.54 -322.26,380.86 -114.18,-96.74 -225.25,-211.35 -335.87,-339.65 -8.42,3153.53 9.08,5009.71 2309.37,8175.65 192.68,265.92 -211.65,558.85 -404.3,292.96 -405.71,-558.4 -742.92,-1077.07 -1023.56,-1569.48l0 4831.41c10.58,577.07 96.32,578.54 911.07,1134.81 519.33,304.43 1144.38,589 1609.67,515.48 323.73,-50.09 399.86,442.1 76.18,492.18 -327.72,51.8 -412.39,-65.36 -79.7,209.54 427.98,353.69 842.64,721.12 1272.82,1067.73 255.3,205.26 -57.18,593.95 -312.5,388.68 -1073.4,-864.96 -2011.2,-1711.01 -3178.2,-2464.85 -368.67,-238.2 -299.34,-275.1 -299.34,191.02l0 11958.78c0,3588.62 -16078.67,3588.59 -16078.67,0l0 -21416.66c-1377.78,-50.68 -1734.42,-1805.72 -680.86,-2864.83 234.11,-235.34 434.34,-501.51 680.86,-732.51l0 -1517.5c-1413.57,268.26 -2515.13,-1123.62 -1813.45,-2418.62 394.52,-728.1 1813.45,-2181.13 1813.45,-2800.08l0 -2163.74c0,-614.56 164.91,-1344.45 706.67,-1711.75 -1020.86,-461.13 -1532.34,-1981.44 -397.03,-2624.49 1048.55,-593.89 1635.41,-479.83 2643.11,-1420.87 519.1,-484.76 1853.08,-781.6 2567.2,-730.68l14.76 -1377.05c108.7,-316.7 769.01,-418.06 1077.73,-457.74 -63.46,-120.98 -108.57,-251.95 -135.33,-387.51 -192.24,-973.77 503.41,-1800.66 1484.81,-1768.27 718.13,23.72 1444.69,153.05 2131.38,374.69 1457.61,470.44 5335.02,3041.76 6429.97,4226.37 742.17,802.95 1387.51,1843.81 1929.15,2791.48 1749.27,3058.91 2663.12,4759.15 3652.27,8187.17 991.35,3435.62 2276.08,6389.72 4265.2,9260.99 370.64,535.02 762.64,1063.41 1118.85,1482.96 211.68,250.2 -169.21,572.42 -380.86,322.26 -364.93,-429.82 -767.29,-972.26 -1148.15,-1522.02 -259.45,-374.53 -220.96,-422.6 -193.43,18.16 23.47,375.31 6.49,738.54 -58.33,1053.44zm-15222.75 -21619.3l-1.37 982.86c404.16,54.08 1598.41,202.18 1650.75,718.39 34.14,12.28 67.88,25.09 101.22,38.37 209.7,83.6 252.34,143.09 71.76,-70.77 -539.93,-639.53 -1207.18,-1113.55 -1822.36,-1668.85zm-712.78 -1396.17c-962.05,207.29 -2420.88,190.44 -3389.33,28.7 -80.7,-13.47 -156.73,-28.97 -227.65,-46.4 -188.72,-46.37 -138.13,-47.32 -137.95,182.87 0.53,713.48 17.67,1427.15 1.6,2140.44 -6.7,297.45 6.85,338.4 446.04,397.65 896.93,149.8 2235.76,176.26 3074.48,0 523.77,-87.45 449.94,-97.89 446.21,-344.74 -10.86,-718.68 2.02,-1437.53 3.01,-2156.29 0.43,-311.61 52.91,-260.31 -216.41,-202.23zm-8091.01 5968.86c59.57,-315.76 156.72,-638.15 293.51,-949.48 -138.64,54.76 -415.68,176.31 -587.63,315.06 -335.45,270.62 -28.71,478.75 294.12,634.42zm3838.89 -4660.5c-565.64,-57.59 -1818.43,215.86 -2227.73,598.1 -1089.98,1017.89 -1640.84,868.46 -2736.85,1489.23 -758.55,429.64 -291,1435.7 342.39,1729.87 303.4,-383.84 985.52,-622.1 1434.36,-754.38 382.22,-561.38 899.5,-998.25 1535.93,-1245.5 5.21,-225.79 222.4,-402.45 603.52,-525.86 261.98,-84.84 620.7,-158.67 1049.19,-216.95l-0.81 -1074.51zm-5520.32 9326.67c-438.63,618.57 -1016.2,1203.14 -1373.99,1863.44 -523.88,966.87 336.04,1933.09 1373.99,1671.5l0 -3534.94zm0 6286.34c-152.61,146.51 -227.92,251.54 -327.34,360.97 -702.17,729.69 -633.75,1949.67 327.34,2015.78l0 -2376.75zm10311.34 -8603.11c-2862.22,180.61 -6200,-9.84 -8157.64,-568.15 -512.17,-146.07 -1310.28,-420.21 -1626.65,-885.88 -28.94,171.19 -27.05,298.58 -27.05,465.85l0 2131.99 0 30579.28c297.16,2920.79 14781.51,2920.76 15078.67,0l0 -17571.8c0,-685.82 55.59,-389.02 -180.53,-986.84 -709.07,-1795.41 -704.81,-3383.56 -698.77,-5588.01 1.59,-621.76 57.85,-476.02 -241.14,-889.12 -680.35,-940.04 -1046.86,-1253.06 -1940.7,-1933.72 -897.26,-683.27 -1551.06,-1606.83 -1885.82,-2503.04 -272.93,-730.67 -335.07,-1450.65 -148.72,-2024.25 94.61,-291.3 177.71,-248.32 -171.65,-226.31zm5267.33 900.35l0 -1592.21c0,-82.88 0.69,-165.76 0.64,-248.71 -0.38,-592.67 23.13,-378.74 -321.68,-138.18 -307.67,214.65 -758.73,398.16 -1313.83,550.88 -227.51,62.61 -222.4,14.73 0.05,188.6 539.36,421.49 1068.39,851.39 1634.82,1239.62zm-8767.6 -8815.9c213.34,0 386.29,229.93 386.29,513.55 0,283.63 -172.95,513.56 -386.29,513.56 -213.34,0 -386.29,-229.93 -386.29,-513.56 0,-283.62 172.95,-513.55 386.29,-513.55zm2715.33 -980.84c-717.22,-119.79 -1575.13,-121.28 -2307.79,-79.78 -283.68,16.06 -536.33,41.75 -748.17,77.13 -548.3,85.82 -463.69,120.57 -5.29,177.3 896.93,149.8 2177.55,149.8 3074.48,0 533.68,-85.56 491.68,-87.65 -13.23,-174.65zm-3929.24 3454.75c-251.91,-0.41 -1941.12,156.3 -777.67,384.39 133.98,26.26 294.6,55.04 477.45,85.57 1933.83,322.96 3949.72,249.43 5875.78,-83.11 961.88,-166.05 -399.98,-342.46 -761.98,-390.51 -125.25,148.03 -404.13,258.2 -789.07,322.48 -956.16,159.69 -2282.4,159.69 -3238.56,0 -381.77,-63.75 -659.22,-172.63 -785.95,-318.82zm-1399.25 660.89c-1150.63,372.27 -1855.87,1463.69 -2042.92,2618.2 2876.07,956.72 8892.62,956.72 11768.69,0 -89.94,-555.11 -311.68,-1140.07 -679.93,-1628.97 -310.94,-412.82 -726.92,-756.31 -1256.47,-952.35 -188.35,-69.69 -110.24,-64.53 -281.27,13.11 -228.21,103.61 -539.67,188.39 -916.13,251.26 -1641.99,274.22 -3932.99,274.22 -5574.98,0 -435.34,-72.7 -783.7,-174.71 -1016.99,-301.25zm10199.33 2431.35c285.29,-137.56 441.99,-279.37 441.99,-419.18 0,-244.94 -552.9,-483.77 -748.51,-559.6 143.65,320.38 245.08,653.09 306.52,978.78zm-13085.82 13150.47c0,-197.31 300,-197.31 300,0l0 17695.34c0,197.31 -300,197.31 -300,0l0 -17695.34zm-811.42 21624.69l0 468.25c0,2901.77 15078.67,2901.8 15078.67,0l0 -468.26c-1967.09,2392.51 -13111.57,2392.52 -15078.67,0.01z"/></g><text x="0" y="50015" fill="#000000" font-size="5px" font-weight="bold" font-family="'Helvetica Neue', Helvetica, Arial-Unicode, Arial, Sans-serif"></text><text x="0" y="50020" fill="#000000" font-size="5px" font-weight="bold" font-family="'Helvetica Neue', Helvetica, Arial-Unicode, Arial, Sans-serif"></text></svg>