<svg height='30px' width='30px' xmlns="http://www.w3.org/2000/svg" xmlns:xlink="http://www.w3.org/1999/xlink" version="1.1" x="0px" y="0px" viewBox="0 0 100 125" style="enable-background:new 0 0 100 100;" xml:space="preserve"><g><path d="M22.8,39.8v34.9c0,9.9,8.1,18,18,18h18.4c9.9,0,18-8.1,18-18V39.8c3.4-1.9,5.8-5.5,5.8-9.7C83,24,78,19,71.9,19h-6.3   c0-6.4-5.3-11.7-11.7-11.7h-7.7c-6.4,0-11.7,5.2-11.7,11.7h-6.3C22,19,17,24,17,30.1C17,34.3,19.4,37.9,22.8,39.8z M59.2,84.7H40.8   c-5.5,0-10-4.5-10-10V41.2h38.4v33.5C69.2,80.2,64.7,84.7,59.2,84.7z M46.1,15.3h7.7c2,0,3.7,1.6,3.7,3.7H42.4   C42.5,17,44.1,15.3,46.1,15.3z M28.1,27h43.8c1.7,0,3.1,1.4,3.1,3.1c0,1.7-1.4,3.1-3.1,3.1H28.1c-1.7,0-3.1-1.4-3.1-3.1   C25,28.4,26.4,27,28.1,27z"/><rect x="56.3" y="47.8" width="8" height="29.2"/><rect x="46" y="47.8" width="8" height="29.2"/><rect x="35.7" y="47.8" width="8" height="29.2"/></g><text x="0" y="115" fill="#000000" font-size="5px" font-weight="bold" font-family="'Helvetica Neue', Helvetica, Arial-Unicode, Arial, Sans-serif"></text><text x="0" y="120" fill="#000000" font-size="5px" font-weight="bold" font-family="'Helvetica Neue', Helvetica, Arial-Unicode, Arial, Sans-serif"></text></svg>