<svg height='50px' width='50px' xmlns="http://www.w3.org/2000/svg" xmlns:xlink="http://www.w3.org/1999/xlink" version="1.1" x="0px" y="0px" viewBox="0 0 100 125" enable-background="new 0 0 100 100" xml:space="preserve"><g><path d="M74.632,37.733H46.694V24.338C46.694,13.675,38.02,5,27.355,5C16.693,5,8.017,13.675,8.017,24.338v17.517   c0,2.394,1.94,4.337,4.338,4.337c2.395,0,4.337-1.943,4.337-4.337V24.338c0-5.879,4.784-10.663,10.663-10.663   c5.88,0,10.664,4.784,10.664,10.663v13.903c-7.491,1.801-13.027,8.167-13.027,15.747v24.756C24.992,87.722,32.759,95,42.343,95   h32.289c9.582,0,17.352-7.278,17.352-16.256V53.988C91.983,45.011,84.214,37.733,74.632,37.733z M27.353,6.988   c-6.616,0-12.408,3.16-15.607,7.896c3.2-5.274,8.992-8.794,15.607-8.794c6.621,0,12.414,3.52,15.615,8.794   C39.767,10.147,33.973,6.988,27.353,6.988z M62.832,67.245v9.023c0,2.401-1.946,4.344-4.345,4.344s-4.345-1.942-4.345-4.344v-9.023   c-1.797-1.335-2.976-3.452-2.976-5.862c0-4.041,3.277-7.318,7.32-7.318c4.042,0,7.319,3.277,7.319,7.318   C65.807,63.793,64.629,65.91,62.832,67.245z M90.739,55.349c0-8.644-7.48-15.653-16.707-15.653H42.943   c-9.228,0-16.708,7.009-16.708,15.653v-1.045c0-8.644,7.48-15.653,16.708-15.653h31.089c9.227,0,16.707,7.009,16.707,15.653V55.349   z"/></g><text x="0" y="115" fill="#000000" font-size="5px" font-weight="bold" font-family="'Helvetica Neue', Helvetica, Arial-Unicode, Arial, Sans-serif"></text><text x="0" y="120" fill="#000000" font-size="5px" font-weight="bold" font-family="'Helvetica Neue', Helvetica, Arial-Unicode, Arial, Sans-serif"></text></svg>